<?xml version="1.0" encoding="UTF-8"?>
<svg id="Layer_2" data-name="Layer 2" xmlns="http://www.w3.org/2000/svg" viewBox="0 0 818.15 1217.89">
  <g id="Layer_1-2" data-name="Layer 1">
    <g>
      <path d="M51.79,1205.82c5.15-242.34,16.92-484.58,38.33-726.06,12.09-123.08,23.16-245.73,52.68-366.87,1.75-6.7,4.71-17.5,6.79-24.21,0,0,1.6-4.99,1.6-4.99l1.61-4.99s.81-2.49.81-2.49c0,0,.93-2.58.93-2.58,0,0,3.76-10.33,3.76-10.33,0,0,4.5-10.85,4.5-10.85.2-.46.37-.89.59-1.37,0,0,.7-1.46.7-1.46,0,0,1.4-2.92,1.4-2.92,0,0,2.85-5.82,2.85-5.82.25-.49.46-.95.74-1.47,0,0,.92-1.62.92-1.62,0,0,1.87-3.24,1.87-3.24C188.19.94,229.8-10.82,260.54,11.27c2.95,1.94,6.86,4.43,9.74,6.43,19.66,13.47,38.2,28.17,55.93,44.06,58.47,52.74,107.88,119.62,120.62,199.45,22.57,142.01-86.71,254.13-198.37,320.92-5.47,3.23-15.12,8.99-20.49,12.27-12.64,7.76-24.91,16.52-35.59,26.8-10.09,10.23-19.11,21.23-17.75,36.05.56,8.23,3.48,17.68,6.87,26.05,52.82,124.98,317.58,313.23,433.01,404.58,8.38,6.39,29.36,22.82,38.22,29.81,3.81,2.94,4.5,8.45,1.51,12.22-2.12,2.68-5.51,3.77-8.63,3.1-128.16-30.77-249.3-81.09-364.48-146.08-91.28-53.71-181.82-116.89-240.78-208.39-73.49-116.24-44.5-240.02,69.96-315.51,10.26-6.84,21.6-13.6,32.46-19.38,8-4.23,17.98-9.22,26.04-13.33,2.83-1.52,10.88-5.83,13.85-7.39,47.96-26.72,112.71-68.3,123.08-123.87,10.96-63.9-51.57-133.5-98.15-173.1-3.89-3.31-7.79-6.41-11.76-9.51,0,0-1.83-1.41-1.83-1.41,0,0-.82-.63-.82-.63,0,0-.33-.26-.33-.26l-.15-.11c.01.14,84.86-16.85,84.95-16.84-.39.69-.92,1.29-1.4,1.92,0,0-.26.31-.26.31-.1.14-.21.36-.31.54-.72,1.24-1.61,2.75-2.32,3.89-1.8,3.43-4.59,9.21-6.15,12.91-.85,1.75-2.1,5.1-2.87,6.96-1.66,3.87-4.05,10.7-5.57,14.77-23.32,68.27-38.5,140.87-53.44,211.9-56.61,283.1-96.18,570.65-136.67,856.69-.62,4.64-4.91,7.9-9.55,7.26-4.29-.6-7.38-4.31-7.3-8.53h0Z"/>
      <path d="M702.14,1184.94c4.92.19,9.5-.84,13.76-3.08,4.43-1.44,8.26-3.9,11.5-7.39,3.48-3.24,5.94-7.07,7.39-11.5,2.24-4.26,3.26-8.84,3.08-13.76l-1.28-9.5c-1.7-6.05-4.76-11.3-9.19-15.76l-7.23-5.59c-5.57-3.23-11.58-4.86-18.03-4.88-4.92-.19-9.5.84-13.76,3.08-4.43,1.44-8.26,3.9-11.5,7.39-3.48,3.24-5.94,7.07-7.39,11.5-2.24,4.26-3.26,8.84-3.08,13.76l1.28,9.5c1.7,6.05,4.76,11.3,9.19,15.76l7.23,5.59c5.57,3.23,11.58,4.86,18.03,4.88h0Z"/>
      <path d="M782.4,1217.86c4.92.19,9.5-.84,13.76-3.08,4.43-1.44,8.26-3.9,11.5-7.39,3.48-3.24,5.94-7.07,7.39-11.5,2.24-4.26,3.26-8.84,3.08-13.76l-1.28-9.5c-1.7-6.05-4.76-11.3-9.19-15.76l-7.23-5.59c-5.57-3.23-11.58-4.86-18.03-4.88-4.92-.19-9.5.84-13.76,3.08-4.43,1.44-8.26,3.9-11.5,7.39-3.48,3.24-5.94,7.07-7.39,11.5-2.24,4.26-3.26,8.84-3.08,13.76l1.28,9.5c1.7,6.05,4.76,11.3,9.19,15.76,2.41,1.86,4.82,3.72,7.23,5.59,5.57,3.23,11.58,4.86,18.03,4.88h0Z"/>
    </g>
  </g>
</svg>