<?xml version="1.0" encoding="UTF-8"?>
<svg id="Layer_2" data-name="Layer 2" xmlns="http://www.w3.org/2000/svg" viewBox="0 0 689.83 213.57">
  <defs>
    <style>
      .cls-1 {
        fill: #fff;
        font-family: JUSTSans-ExBd, 'JUST Sans';
        font-size: 135.9px;
      }

      .cls-2 {
        letter-spacing: 0em;
      }

      .cls-3 {
        letter-spacing: 0em;
      }

      .cls-4 {
        letter-spacing: 0em;
      }

      .cls-5 {
        letter-spacing: 0em;
      }

      .cls-6 {
        fill: lime;
      }

      .cls-7 {
        letter-spacing: 0em;
      }
    </style>
  </defs>
  <g id="Layer_1-2" data-name="Layer 1">
    <g>
      <text class="cls-1" transform="translate(107.09 157.51)"><tspan class="cls-4" x="0" y="0">R</tspan><tspan class="cls-5" x="92.82" y="0">o</tspan><tspan class="cls-7" x="175.04" y="0">a</tspan><tspan class="cls-3" x="257.12" y="0">s</tspan><tspan x="331.6" y="0">tif</tspan><tspan class="cls-2" x="501.34" y="0">y</tspan></text>
      <g>
        <path class="cls-6" d="M6.85,212.28c1.75-51.66,4.51-103.19,10.76-154.56,2.1-15.37,3.97-30.94,8.94-45.87.94-2.6,2.08-5.33,3.6-7.68,2.44-4.07,7.72-5.38,11.79-2.94,3.06,1.92,5.75,3.94,8.5,6.19,28.64,23.37,34.79,54.65,5.3,80.68-1.37,1.04-4.31,3.65-5.66,4.61-1.22.89-4.57,3.2-5.85,4.09-1.95,1.18-5.89,3.62-7.59,4.67-2.61,1.56-5.21,3.39-7.3,5.56-4.92,4.6-4,9.89-.99,15.63,4.58,8.66,11.81,16,18.89,22.84,20.37,18.94,42.97,34.54,65.98,51.36.58.4.72,1.22.3,1.79-.32.44-.86.61-1.35.48-11.2-3-21.98-7.02-32.61-11.55-21.74-9.56-42.3-20.55-60.12-37.17-7.09-6.82-14.17-15.35-17.52-25.47-5.92-17.57,2.42-33.69,17.66-43.12,3.43-2.24,7.97-4.46,11.59-6.39,1.06-.64,3.77-2.28,4.81-2.88,5.12-3.22,10.74-7.68,13.96-12.25,8.54-11.15,2.17-23.78-6.36-33.39-3.27-3.65-6.96-7.09-10.9-10.05,0,0,12.5-2.49,12.5-2.49-.33.5-.66,1-.95,1.56-2.97,6.14-4.63,12.77-6.38,19.5-9.99,41.36-15.56,83.89-21.69,126.04-2.33,16.99-4.65,34-6.8,51.03-.08.69-.71,1.18-1.4,1.09-.64-.08-1.11-.64-1.09-1.28h0Z"/>
        <path class="cls-6" d="M124.1,207.68c5.75,0,5.76-8.93,0-8.93s-5.76,8.93,0,8.93h0Z"/>
      </g>
    </g>
  </g>
</svg>